<svg width="514" height="408" viewBox="0 0 514 408" fill="none" xmlns="http://www.w3.org/2000/svg">
<rect x="85" y="61.5076" width="429" height="311" rx="10" fill="white" fill-opacity="0.1"/>
<circle cx="116" cy="91.5076" r="5" fill="#FC165B"/>
<circle cx="132" cy="91.5076" r="5" fill="#FCA016"/>
<circle cx="148" cy="91.5076" r="5" fill="#16FCA9"/>
<g filter="url(#filter0_f_31_243)">
<circle cx="26.661" cy="185.169" r="15.7675" transform="rotate(-34.7184 26.661 185.169)" fill="url(#paint0_linear_31_243)"/>
</g>
<g filter="url(#filter1_f_31_243)">
<circle cx="344.941" cy="18.4483" r="8.22721" transform="rotate(-34.7184 344.941 18.4483)" fill="url(#paint1_linear_31_243)"/>
</g>
<g filter="url(#filter2_f_31_243)">
<circle cx="441.327" cy="376.771" r="21.0298" transform="rotate(-34.7184 441.327 376.771)" fill="url(#paint2_linear_31_243)"/>
</g>
<path d="M194.5 125.508C194.5 124.127 195.619 123.008 197 123.008H403C404.381 123.008 405.5 124.127 405.5 125.508V372.008H194.5V125.508Z" fill="white" fill-opacity="0.1" stroke="#44C7FF"/>
<path d="M398 284.508L407.427 307.134L410.773 297.281L420.627 293.934L398 284.508Z" stroke="white" stroke-width="2" stroke-linecap="round" stroke-linejoin="round"/>
<rect x="212" y="178.508" width="176" height="87" rx="3" fill="white" fill-opacity="0.1"/>
<rect x="111" y="130" width="21" height="21" rx="3" fill="white" fill-opacity="0.1"/>
<rect x="111" y="163" width="21" height="21" rx="3" fill="white" fill-opacity="0.1"/>
<rect x="111" y="196" width="21" height="21" rx="3" fill="white" fill-opacity="0.1"/>
<rect x="111" y="229" width="21" height="21" rx="3" fill="white" fill-opacity="0.1"/>
<rect x="142" y="130" width="21" height="21" rx="3" fill="white" fill-opacity="0.1"/>
<rect x="426" y="124" width="56" height="55" rx="3" fill="white" fill-opacity="0.1"/>
<rect x="426" y="196" width="56" height="21" rx="3" fill="white" fill-opacity="0.1"/>
<rect x="426" y="234" width="56" height="43" rx="3" fill="white" fill-opacity="0.1"/>
<rect x="111" y="266" width="52" height="59" rx="3" fill="white" fill-opacity="0.1"/>
<rect x="142" y="163" width="21" height="21" rx="3" fill="white" fill-opacity="0.1"/>
<rect x="142" y="196" width="21" height="21" rx="3" fill="white" fill-opacity="0.1"/>
<rect x="142" y="229" width="21" height="21" rx="3" fill="white" fill-opacity="0.1"/>
<rect x="212" y="274.508" width="84" height="87" rx="3" fill="white" fill-opacity="0.1"/>
<rect x="304" y="274.508" width="84" height="87" rx="3" fill="white" fill-opacity="0.1"/>
<rect width="58" height="15" rx="3" transform="matrix(1 0 0 -1 271 158.508)" fill="white" fill-opacity="0.1"/>
<rect width="15" height="15" rx="3" transform="matrix(1 0 0 -1 212 158.508)" fill="white" fill-opacity="0.1"/>
<rect x="0.5" y="-0.5" width="7" height="7" transform="matrix(1 0 0 -1 402 125.508)" fill="white" stroke="#44C7FF"/>
<rect x="0.5" y="-0.5" width="7" height="7" transform="matrix(1 0 0 -1 190 125.508)" fill="white" stroke="#44C7FF"/>
<defs>
<filter id="filter0_f_31_243" x="0.89209" y="159.4" width="51.5378" height="51.5381" filterUnits="userSpaceOnUse" color-interpolation-filters="sRGB">
<feFlood flood-opacity="0" result="BackgroundImageFix"/>
<feBlend mode="normal" in="SourceGraphic" in2="BackgroundImageFix" result="shape"/>
<feGaussianBlur stdDeviation="5" result="effect1_foregroundBlur_31_243"/>
</filter>
<filter id="filter1_f_31_243" x="326.713" y="0.220215" width="36.4561" height="36.4561" filterUnits="userSpaceOnUse" color-interpolation-filters="sRGB">
<feFlood flood-opacity="0" result="BackgroundImageFix"/>
<feBlend mode="normal" in="SourceGraphic" in2="BackgroundImageFix" result="shape"/>
<feGaussianBlur stdDeviation="5" result="effect1_foregroundBlur_31_243"/>
</filter>
<filter id="filter2_f_31_243" x="410.296" y="345.739" width="62.0632" height="62.0632" filterUnits="userSpaceOnUse" color-interpolation-filters="sRGB">
<feFlood flood-opacity="0" result="BackgroundImageFix"/>
<feBlend mode="normal" in="SourceGraphic" in2="BackgroundImageFix" result="shape"/>
<feGaussianBlur stdDeviation="5" result="effect1_foregroundBlur_31_243"/>
</filter>
<linearGradient id="paint0_linear_31_243" x1="26.661" y1="169.401" x2="26.661" y2="200.936" gradientUnits="userSpaceOnUse">
<stop stop-color="#FF81A6"/>
<stop offset="1" stop-color="#FC165B"/>
</linearGradient>
<linearGradient id="paint1_linear_31_243" x1="344.941" y1="10.2211" x2="344.941" y2="26.6755" gradientUnits="userSpaceOnUse">
<stop stop-color="#81ACFF"/>
<stop offset="1" stop-color="#1656FC"/>
</linearGradient>
<linearGradient id="paint2_linear_31_243" x1="441.327" y1="355.741" x2="441.327" y2="397.8" gradientUnits="userSpaceOnUse">
<stop stop-color="#66FFA3"/>
<stop offset="1" stop-color="#009C3E"/>
</linearGradient>
</defs>
</svg>
